<svg xmlns:xlink="http://www.w3.org/1999/xlink" xmlns="http://www.w3.org/2000/svg" width="512" height="512" viewBox="0 0 512 512"><path d="M116.504 500.22V170.653H6.974v329.564h109.53zM61.75 125.673c38.184 0 61.97-25.328 61.97-56.953-.723-32.327-23.786-56.94-61.253-56.94C24.994 11.78.5 36.394.5 68.722c0 31.625 23.772 56.953 60.53 56.953h.72zM177.125 500.22s1.437-298.644 0-329.565H286.67v47.794h-.727c14.404-22.49 40.354-55.534 99.44-55.534 72.085 0 126.116 47.103 126.116 148.333v188.97H401.97V323.912c0-44.3-15.847-74.53-55.496-74.53-30.254 0-48.284 20.38-56.202 40.08-2.897 7.01-3.602 16.86-3.602 26.71V500.22H177.124z" fill="#ffffff" fill-rule="evenodd" clip-rule="evenodd"/></svg>